<svg width="12" height="12" viewBox="0 0 12 12" fill="none" xmlns="http://www.w3.org/2000/svg">
<path fill-rule="evenodd" clip-rule="evenodd" d="M0.696774 11.3042C0.522665 11.1301 0.425521 10.8933 0.426713 10.6459C0.427905 10.3984 0.527336 10.1607 0.703132 9.98488L8.38278 2.30523L2.71894 2.33384C2.59627 2.33443 2.47492 2.31086 2.36182 2.26446C2.24872 2.21807 2.14608 2.14976 2.05976 2.06344C1.97344 1.97712 1.90513 1.87448 1.85874 1.76138C1.81234 1.64828 1.78877 1.52693 1.78936 1.40427C1.78995 1.2816 1.8147 1.16002 1.86218 1.04647C1.90967 0.932914 1.97897 0.829611 2.06613 0.742456C2.15328 0.6553 2.25659 0.586 2.37014 0.538512C2.48369 0.491024 2.60527 0.466278 2.72794 0.465687L10.6439 0.42754C10.7666 0.426793 10.888 0.450264 11.0012 0.496604C11.1143 0.542944 11.217 0.611245 11.3034 0.697595C11.3897 0.783945 11.458 0.886647 11.5044 0.999819C11.5507 1.11299 11.5742 1.23441 11.5734 1.35712L11.5353 9.27303C11.5347 9.3957 11.5099 9.51728 11.4625 9.63083C11.415 9.74438 11.3457 9.84769 11.2585 9.93484C11.1714 10.022 11.0681 10.0913 10.9545 10.1388C10.8409 10.1863 10.7194 10.211 10.5967 10.2116C10.349 10.2128 10.1119 10.1155 9.93753 9.94121C9.85121 9.85489 9.7829 9.75225 9.73651 9.63915C9.69011 9.52605 9.66654 9.4047 9.66713 9.28203L9.69574 3.61819L2.01609 11.2978C1.8403 11.4736 1.60254 11.5731 1.35512 11.5743C1.1077 11.5754 0.870884 11.4783 0.696774 11.3042V11.3042Z" fill="#DADADA"/>
</svg>
