<svg width="40" height="40" viewBox="0 0 40 40" fill="none" xmlns="http://www.w3.org/2000/svg">
<path d="M7.84289 0.00976562C3.53421 0.00976562 0.0078125 3.53609 0.0078125 7.84485V32.1585C0.0078125 36.4672 3.53413 39.9923 7.84289 39.9923H32.1565C36.4653 39.9923 39.9903 36.4672 39.9903 32.1585V7.84485C39.9903 3.53617 36.4653 0.00976562 32.1565 0.00976562H7.84289ZM9.81353 6.60769C11.8795 6.60769 13.152 7.96393 13.1913 9.74669C13.1913 11.4901 11.8794 12.8844 9.77357 12.8844H9.73481C7.70821 12.8844 6.39833 11.4902 6.39833 9.74669C6.39833 7.96397 7.74785 6.60769 9.81349 6.60769H9.81353ZM27.6167 14.9401C31.5899 14.9401 34.5683 17.537 34.5683 23.1175V33.5355H28.5302V23.816C28.5302 21.3736 27.6563 19.7073 25.4712 19.7073C23.803 19.7073 22.8087 20.8304 22.3721 21.9154C22.2127 22.3035 22.1735 22.8456 22.1735 23.3886V33.5355H16.1353C16.1353 33.5355 16.2146 17.071 16.1353 15.3662H22.1747V17.9391C22.9771 16.7011 24.4124 14.94 27.6167 14.94V14.9401ZM6.75449 15.3675H12.7926V33.5356H6.75449V15.3675V15.3675Z" fill="#808080"/>
</svg>
