<svg width="1900" height="696" viewBox="0 0 1900 696" fill="none" xmlns="http://www.w3.org/2000/svg">
<g opacity="0.1">
<path d="M1363.97 121.923C1327.39 162.463 1289.76 202.08 1251.06 240.776C1211.94 279.38 1172.25 317.71 1128.04 351.293C1111.96 362.935 1082.63 385.081 1061.54 382.737C1055.07 381.992 1048.17 378.226 1046.42 371.693C1044.4 363.847 1047.94 356.413 1050.76 350.037C1055.27 340.573 1060.75 331.618 1066.15 322.791C1083.59 293.367 1124.46 235.568 1115.37 202.564C1112.81 193.737 1105.04 187.636 1096.74 183.576C1067.08 169.57 1027 169.845 994.359 173.013C894.27 183.939 790.683 231.861 741.495 318.24C738.745 322.908 735.974 328.577 733.556 333.413C730.692 339.67 727.589 347.281 725.254 353.735C705.61 409.974 708.806 471.431 724.787 528.229C728.354 541.074 732.65 553.728 737.655 566.137C734.57 560.154 731.709 554.067 729.073 547.874C695.679 470.391 688.965 377.715 733.068 302.576C778.843 223.661 868.627 175.553 959.823 157.653C1006.47 148.346 1092.49 142.892 1126.71 180.074C1147.3 203.614 1136.42 236.745 1124.94 261.638C1113.45 286.531 1097.96 309.364 1083.36 332.393C1076.93 342.956 1069.09 353.902 1065.25 365.299C1065.06 365.941 1064.93 366.597 1064.86 367.26C1064.86 367.319 1064.86 367.182 1064.86 367.142C1064.85 367.084 1064.83 367.028 1064.8 366.976C1064.5 366.07 1063.9 365.281 1063.08 364.73C1063.39 364.932 1063.74 365.063 1064.12 365.112C1065.05 365.212 1065.99 365.212 1066.92 365.112C1072.27 364.455 1078.33 361.915 1083.52 359.433C1095.39 353.627 1106.77 346.114 1117.62 338.483C1162.03 306.696 1203.07 270.004 1243.54 233.665C1283.66 197.484 1324.48 158.909 1364 121.923H1363.97Z" fill="white"/>
</g>
<g opacity="0.1">
<path d="M-2.89356e-05 583.12C42.893 548.55 84.8105 512.979 125.753 476.409C166.598 439.433 207.152 401.917 242.684 360.135C255.002 344.932 278.434 317.215 275.954 297.285C275.165 291.165 271.181 284.643 264.269 282.995C255.967 281.082 248.101 284.427 241.356 287.095C231.342 291.361 221.867 296.54 212.528 301.64C181.396 318.127 120.242 356.751 85.3224 348.159C75.9828 345.737 69.5281 338.4 65.2319 330.554C50.4131 302.523 50.7036 264.634 54.0555 233.788C65.6159 139.19 116.32 41.2866 207.713 -5.20335C212.652 -7.80247 218.65 -10.4212 223.767 -12.7065C230.387 -15.4135 238.44 -18.3461 245.268 -20.5529C304.772 -39.1194 369.796 -36.0986 429.892 -20.9943C443.482 -17.6228 456.871 -13.5629 470 -8.83231C463.67 -11.7486 457.229 -14.4523 450.677 -16.9435C368.696 -48.5057 270.641 -54.8514 191.14 -13.1674C107.644 30.0956 56.7433 114.954 37.8046 201.147C27.9565 245.234 22.1867 326.533 61.5272 358.879C86.4328 378.339 121.487 368.06 147.825 357.202C174.163 346.345 198.321 331.701 222.687 317.902C233.864 311.83 245.445 304.416 257.503 300.787C258.183 300.61 258.877 300.488 259.579 300.424C259.641 300.424 259.496 300.424 259.454 300.424C259.392 300.413 259.333 300.393 259.278 300.365C258.319 300.081 257.485 299.509 256.901 298.737C257.115 299.029 257.254 299.365 257.306 299.718C257.411 300.597 257.411 301.486 257.306 302.366C256.611 307.427 253.923 313.155 251.298 318.059C245.154 329.279 237.205 340.028 229.132 350.288C195.499 392.256 156.677 431.047 118.229 469.298C79.947 507.216 39.1329 545.8 -2.89369e-05 583.149L-2.89356e-05 583.12Z" fill="white"/>
</g>
<g opacity="0.1">
<path d="M2042.02 455.822C1986.58 446.154 1931.46 435.158 1876.66 422.835C1821.72 410.114 1766.76 396.79 1713.88 377.397C1695.17 370.052 1660.21 357.121 1651.82 338.69C1649.26 333.017 1649.27 325.485 1654.38 320.792C1660.56 315.212 1669.14 314.392 1676.39 313.514C1687.32 312.477 1698.27 312.484 1709.05 312.488C1744.74 312.054 1818.13 316.604 1843.82 292.661C1850.63 286.15 1852.34 276.746 1851.91 267.92C1849.91 236.642 1829.62 203.967 1810.4 178.837C1750.34 102.376 1654.64 41.55 1550.89 44.4781C1545.24 44.5615 1538.66 45.1281 1533.02 45.5666C1525.86 46.351 1517.33 47.6169 1510.25 48.9325C1448.9 60.973 1394.18 94.3176 1350.13 135.797C1340.14 145.14 1330.69 154.983 1321.83 165.284C1325.77 159.767 1329.91 154.382 1334.27 149.128C1388.57 83.0529 1470.13 31.2194 1561.03 29.7493C1656.23 27.7586 1745.2 77.1944 1807.2 142.89C1839.06 176.416 1887.06 244.096 1870.1 290.7C1858.83 319.322 1823.03 326.986 1794.48 330.03C1765.93 333.073 1737.26 331.808 1708.86 331.372C1695.97 331.396 1682.01 330.447 1669.65 333.003C1668.97 333.17 1668.3 333.393 1667.66 333.669C1667.61 333.699 1667.73 333.63 1667.77 333.61C1667.82 333.572 1667.86 333.526 1667.89 333.476C1668.57 332.777 1668.99 331.888 1669.09 330.943C1669.06 331.297 1669.11 331.654 1669.26 331.984C1669.63 332.795 1670.1 333.565 1670.66 334.277C1673.94 338.331 1679.29 342.022 1684.16 345.028C1695.42 351.842 1707.99 357.395 1720.41 362.464C1771.74 382.916 1825.88 398.164 1879.41 413.121C1932.62 427.868 1988.38 441.996 2042.03 455.848L2042.02 455.822Z" fill="white"/>
</g>
</svg>
